# This file uses centimeters as units for non-parametric coordinates.

mtllib Ground_Mat.mtl
g default
v 6.789506 -0.160632 -1.743246
v 6.142674 -0.160632 -3.376960
v 5.109874 -0.160632 -4.798488
v 3.756003 -0.160632 -5.918508
v 2.166128 -0.160632 -6.666647
v 0.440147 -0.160632 -6.995897
v -1.313490 -0.160632 -6.885568
v -2.984596 -0.160632 -6.342594
v -4.468168 -0.160632 -5.401091
v -5.670989 -0.160632 -4.120217
v -6.517481 -0.160632 -2.580455
v -6.954455 -0.160632 -0.878554
v -6.954455 -0.160632 0.878550
v -6.517482 -0.160632 2.580452
v -5.670991 -0.160632 4.120214
v -4.468171 -0.160632 5.401088
v -2.984598 -0.160632 6.342592
v -1.313493 -0.160632 6.885567
v 0.440143 -0.160632 6.995896
v 2.166124 -0.160632 6.666648
v 3.755999 -0.160632 5.918509
v 5.109871 -0.160632 4.798490
v 6.142671 -0.160632 3.376962
v 6.789505 -0.160632 1.743249
v 7.009728 -0.160632 0.000000
v 0.000000 -0.160632 0.000000
v 0.000000 0.271767 0.000000
v 6.789506 0.185296 -1.743246
v 6.705086 0.271767 -1.721570
v 6.142674 0.185296 -3.376960
v 6.066297 0.271767 -3.334971
v 5.109874 0.185296 -4.798488
v 5.046339 0.271767 -4.738824
v 3.756003 0.185296 -5.918508
v 3.709301 0.271767 -5.844918
v 2.166128 0.185296 -6.666647
v 2.139194 0.271767 -6.583755
v 0.440147 0.185296 -6.995897
v 0.434674 0.271767 -6.908910
v -1.313490 0.185296 -6.885568
v -1.297158 0.271767 -6.799953
v -2.984596 0.185296 -6.342594
v -2.947485 0.271767 -6.263731
v -4.468168 0.185296 -5.401091
v -4.412611 0.271767 -5.333934
v -5.670989 0.185296 -4.120217
v -5.600476 0.271767 -4.068987
v -6.517481 0.185296 -2.580455
v -6.436443 0.271767 -2.548370
v -6.954455 0.185296 -0.878554
v -6.867984 0.271767 -0.867630
v -6.954455 0.185296 0.878550
v -6.867984 0.271767 0.867626
v -6.517482 0.185296 2.580452
v -6.436444 0.271767 2.548367
v -5.670991 0.185296 4.120214
v -5.600478 0.271767 4.068984
v -4.468171 0.185296 5.401088
v -4.412614 0.271767 5.333931
v -2.984598 0.185296 6.342592
v -2.947488 0.271767 6.263729
v -1.313493 0.185296 6.885567
v -1.297161 0.271767 6.799952
v 0.440143 0.185296 6.995896
v 0.434671 0.271767 6.908910
v 2.166124 0.185296 6.666648
v 2.139191 0.271767 6.583755
v 3.755999 0.185296 5.918509
v 3.709297 0.271767 5.844919
v 5.109871 0.185296 4.798490
v 5.046336 0.271767 4.738825
v 6.142671 0.185296 3.376962
v 6.066294 0.271767 3.334974
v 6.789505 0.185296 1.743249
v 6.705084 0.271767 1.721573
v 7.009728 0.185296 0.000000
v 6.922570 0.271767 -0.000000
vt 0.263405 0.155476
vt 0.237513 0.181785
vt 0.743814 0.723457
vt 0.291450 0.131476
vt 0.321437 0.109956
vt 0.347143 0.848153
vt 0.315965 0.828715
vt 0.286303 0.806749
vt 0.258626 0.782324
vt 0.233138 0.755624
vt 0.210024 0.726843
vt 0.189453 0.696194
vt 0.171576 0.663899
vt 0.156522 0.630195
vt 0.144404 0.595328
vt 0.135308 0.559553
vt 0.129301 0.523132
vt 0.126428 0.486331
vt 0.126710 0.449419
vt 0.130143 0.412666
vt 0.136704 0.376341
vt 0.146345 0.340709
vt 0.158994 0.306031
vt 0.174559 0.272561
vt 0.192926 0.240542
vt 0.213962 0.210209
vt 0.242858 0.186609
vt 0.911746 0.145777
vt 0.885682 0.105691
vt 0.219701 0.214559
vt 0.268319 0.160739
vt 0.927023 0.191085
vt 0.295897 0.137139
vt 0.930552 0.238768
vt 0.325390 0.115978
vt 0.922111 0.285831
vt 0.356618 0.097200
vt 0.902232 0.329316
vt 0.319993 0.822761
vt 0.872162 0.366492
vt 0.290829 0.801149
vt 0.833793 0.395021
vt 0.263614 0.777131
vt 0.789533 0.413112
vt 0.238551 0.750876
vt 0.742166 0.419628
vt 0.215823 0.722575
vt 0.694665 0.414160
vt 0.195595 0.692437
vt 0.650018 0.397050
vt 0.178016 0.660680
vt 0.611027 0.369374
vt 0.163215 0.627538
vt 0.580145 0.332872
vt 0.151298 0.593253
vt 0.559311 0.289836
vt 0.142355 0.558075
vt 0.549833 0.242970
vt 0.136449 0.522261
vt 0.552309 0.195221
vt 0.133624 0.486074
vt 0.566581 0.149587
vt 0.133901 0.449778
vt 0.591754 0.108936
vt 0.137278 0.413638
vt 0.626245 0.075822
vt 0.143730 0.377919
vt 0.667888 0.052327
vt 0.153209 0.342881
vt 0.714066 0.039925
vt 0.165648 0.308782
vt 0.761877 0.039398
vt 0.180954 0.275869
vt 0.808317 0.050777
vt 0.199015 0.244385
vt 0.850469 0.073347
vt 0.740060 0.228893
vt 0.669259 0.519988
vt 0.352918 0.090991
vt 0.350927 0.842033
vt 0.221731 0.216102
vt 0.201170 0.245749
vt 0.183217 0.277045
vt 0.168003 0.309759
vt 0.155640 0.343654
vt 0.146217 0.378481
vt 0.139804 0.413986
vt 0.136448 0.449909
vt 0.136173 0.485987
vt 0.138981 0.521956
vt 0.144851 0.557555
vt 0.153742 0.592521
vt 0.165586 0.626601
vt 0.180299 0.659544
vt 0.197773 0.691109
vt 0.217879 0.721067
vt 0.240471 0.749197
vt 0.265384 0.775295
vt 0.292435 0.799168
vt 0.321422 0.820652
vt 0.352070 0.839744
vt 0.357725 0.099511
vt 0.326785 0.118112
vt 0.297469 0.139147
vt 0.270057 0.162605
vt 0.244749 0.188320
vt 0.914286 0.589676
vt 0.875660 0.551484
vt 0.942200 0.636273
vt 0.957649 0.688349
vt 0.959662 0.742631
vt 0.948112 0.795707
vt 0.923726 0.844244
vt 0.888035 0.885192
vt 0.843282 0.915977
vt 0.792279 0.934665
vt 0.738231 0.940083
vt 0.684534 0.931889
vt 0.634561 0.910598
vt 0.591453 0.877548
vt 0.557919 0.834817
vt 0.536065 0.785088
vt 0.527265 0.731487
vt 0.532071 0.677381
vt 0.550182 0.626170
vt 0.580459 0.581072
vt 0.621001 0.544921
vt 0.722202 0.507839
vt 0.776503 0.509239
vt 0.828750 0.524098
vn 0.000000 -1.000000 0.000000
vn 0.000000 -1.000000 -0.000000
vn 0.000000 -1.000000 -0.000000
vn 0.000000 -1.000000 0.000000
vn 0.000000 -1.000000 0.000000
vn 0.000000 -1.000000 0.000000
vn 0.000000 -1.000000 0.000000
vn 0.000000 -1.000000 -0.000000
vn 0.000000 -1.000000 -0.000000
vn 0.000000 -1.000000 0.000000
vn 0.000000 -1.000000 -0.000000
vn 0.000000 -1.000000 -0.000000
vn 0.000000 -1.000000 0.000000
vn 0.000000 -1.000000 0.000000
vn 0.000000 -1.000000 0.000000
vn 0.000000 -1.000000 0.000000
vn 0.000000 -1.000000 0.000000
vn 0.000000 -1.000000 0.000000
vn 0.000000 -1.000000 0.000000
vn 0.000000 -1.000000 0.000000
vn 0.000000 -1.000000 0.000000
vn 0.000000 -1.000000 0.000000
vn 0.000000 -1.000000 0.000000
vn 0.000000 -1.000000 -0.000000
vn 0.000000 -1.000000 0.000000
vn 0.000000 -1.000000 -0.000000
vn 0.682175 0.709901 -0.175152
vn 0.682175 0.709901 -0.175152
vn 0.704302 0.709901 0.000000
vn 0.704302 0.709901 0.000000
vn 0.617184 0.709901 -0.339300
vn 0.617184 0.709901 -0.339300
vn 0.513414 0.709901 -0.482127
vn 0.513414 0.709901 -0.482128
vn 0.377384 0.709900 -0.594662
vn 0.377384 0.709900 -0.594662
vn 0.217642 0.709900 -0.669831
vn 0.217642 0.709900 -0.669831
vn 0.044224 0.709900 -0.702912
vn 0.044224 0.709900 -0.702912
vn -0.131973 0.709900 -0.691827
vn -0.131973 0.709900 -0.691827
vn -0.299877 0.709900 -0.637272
vn -0.299877 0.709900 -0.637272
vn -0.448939 0.709901 -0.542674
vn -0.448939 0.709900 -0.542674
vn -0.569793 0.709899 -0.413979
vn -0.569793 0.709899 -0.413979
vn -0.654843 0.709900 -0.259271
vn -0.654843 0.709900 -0.259271
vn -0.698747 0.709902 -0.088272
vn -0.698747 0.709902 -0.088272
vn -0.698748 0.709900 0.088272
vn -0.698748 0.709900 0.088272
vn -0.654844 0.709900 0.259271
vn -0.654844 0.709900 0.259271
vn -0.569792 0.709901 0.413978
vn -0.569792 0.709901 0.413978
vn -0.448939 0.709901 0.542673
vn -0.448939 0.709901 0.542673
vn -0.299877 0.709901 0.637271
vn -0.299877 0.709901 0.637271
vn -0.131973 0.709900 0.691827
vn -0.131973 0.709900 0.691827
vn 0.044223 0.709900 0.702912
vn 0.044223 0.709900 0.702912
vn 0.217641 0.709900 0.669831
vn 0.217641 0.709900 0.669831
vn 0.377384 0.709900 0.594662
vn 0.377384 0.709900 0.594662
vn 0.513414 0.709900 0.482128
vn 0.513415 0.709900 0.482128
vn 0.617185 0.709900 0.339300
vn 0.617185 0.709900 0.339301
vn 0.682175 0.709900 0.175153
vn 0.682175 0.709900 0.175153
vn 0.968583 0.000000 -0.248689
vn 0.876307 0.000000 -0.481753
vn 0.876307 0.000000 -0.481753
vn 0.968583 0.000000 -0.248689
vn 0.728969 0.000000 -0.684547
vn 0.728969 0.000000 -0.684547
vn 0.535827 0.000000 -0.844328
vn 0.535827 0.000000 -0.844328
vn 0.309018 0.000000 -0.951056
vn 0.309018 0.000000 -0.951056
vn 0.062791 0.000000 -0.998027
vn 0.062791 0.000000 -0.998027
vn -0.187381 0.000000 -0.982287
vn -0.187381 0.000000 -0.982287
vn -0.425779 0.000000 -0.904827
vn -0.425779 0.000000 -0.904827
vn -0.637424 0.000000 -0.770513
vn -0.637424 0.000000 -0.770513
vn -0.809017 0.000000 -0.587786
vn -0.809017 0.000000 -0.587786
vn -0.929776 0.000000 -0.368125
vn -0.929776 0.000000 -0.368125
vn -0.992115 0.000000 -0.125333
vn -0.992115 0.000000 -0.125333
vn -0.992115 0.000000 0.125333
vn -0.992115 0.000000 0.125333
vn -0.929777 0.000000 0.368124
vn -0.929777 0.000000 0.368124
vn -0.809017 0.000000 0.587785
vn -0.809017 0.000000 0.587785
vn -0.637424 0.000000 0.770513
vn -0.637424 0.000000 0.770513
vn -0.425779 0.000000 0.904827
vn -0.425779 0.000000 0.904827
vn -0.187381 0.000000 0.982287
vn -0.187381 0.000000 0.982287
vn 0.062790 0.000000 0.998027
vn 0.062790 0.000000 0.998027
vn 0.309017 0.000000 0.951057
vn 0.309017 0.000000 0.951057
vn 0.535827 0.000000 0.844328
vn 0.535827 0.000000 0.844328
vn 0.728969 0.000000 0.684547
vn 0.728969 0.000000 0.684547
vn 0.876307 0.000000 0.481754
vn 0.876307 0.000000 0.481754
vn 0.968583 0.000000 0.248690
vn 0.968583 0.000000 0.248690
vn 1.000000 0.000000 0.000000
vn 1.000000 0.000000 0.000000
vn 0.000000 1.000000 0.000000
vn 0.000000 1.000000 0.000000
vn 0.000000 1.000000 -0.000000
vn 0.000000 1.000000 0.000000
vn 0.000000 1.000000 0.000000
vn 0.000000 1.000000 0.000000
vn 0.000000 1.000000 0.000000
vn 0.000000 1.000000 -0.000000
vn 0.000000 1.000000 -0.000000
vn 0.000000 1.000000 0.000000
vn 0.000000 1.000000 0.000000
vn 0.000000 1.000000 -0.000000
vn 0.000000 1.000000 0.000000
vn 0.000000 1.000000 0.000000
vn 0.000000 1.000000 0.000000
vn 0.000000 1.000000 0.000000
vn 0.000000 1.000000 0.000000
vn 0.000000 1.000000 0.000000
vn 0.000000 1.000000 0.000000
vn 0.000000 1.000000 -0.000000
vn 0.000000 1.000000 0.000000
vn 0.000000 1.000000 -0.000000
vn 0.000000 1.000000 -0.000000
vn 0.000000 1.000000 0.000000
vn 0.000000 1.000000 0.000000
vn 0.000000 1.000000 -0.000000
s 1
g Base Scene
usemtl lambert10SG
f 2/130/1 1/108/2 26/3/3
f 3/129/4 2/130/1 26/3/3
f 4/128/5 3/129/4 26/3/3
f 5/78/6 4/128/5 26/3/3
f 6/127/7 5/78/6 26/3/3
f 7/126/8 6/127/7 26/3/3
f 8/125/9 7/126/8 26/3/3
f 9/124/10 8/125/9 26/3/3
f 10/123/11 9/124/10 26/3/3
f 11/122/12 10/123/11 26/3/3
f 12/121/13 11/122/12 26/3/3
f 13/120/14 12/121/13 26/3/3
f 14/119/15 13/120/14 26/3/3
f 15/118/16 14/119/15 26/3/3
f 16/117/17 15/118/16 26/3/3
f 17/116/18 16/117/17 26/3/3
f 18/115/19 17/116/18 26/3/3
f 19/114/20 18/115/19 26/3/3
f 20/113/21 19/114/20 26/3/3
f 21/112/22 20/113/21 26/3/3
f 22/111/23 21/112/22 26/3/3
f 23/110/24 22/111/23 26/3/3
f 24/109/25 23/110/24 26/3/3
f 25/107/26 24/109/25 26/3/3
f 1/108/2 25/107/26 26/3/3
s 2
f 28/27/27 29/106/28 77/81/29 76/30/30
f 29/106/28 28/27/27 30/31/31 31/105/32
f 31/105/32 30/31/31 32/33/33 33/104/34
f 33/104/34 32/33/33 34/35/35 35/103/36
f 35/103/36 34/35/35 36/37/37 37/102/38
f 37/101/38 36/80/37 38/39/39 39/100/40
f 39/100/40 38/39/39 40/41/41 41/99/42
f 41/99/42 40/41/41 42/43/43 43/98/44
f 43/98/44 42/43/43 44/45/45 45/97/46
f 45/97/46 44/45/45 46/47/47 47/96/48
f 47/96/48 46/47/47 48/49/49 49/95/50
f 49/95/50 48/49/49 50/51/51 51/94/52
f 51/94/52 50/51/51 52/53/53 53/93/54
f 53/93/54 52/53/53 54/55/55 55/92/56
f 55/92/56 54/55/55 56/57/57 57/91/58
f 57/91/58 56/57/57 58/59/59 59/90/60
f 59/90/60 58/59/59 60/61/61 61/89/62
f 61/89/62 60/61/61 62/63/63 63/88/64
f 63/88/64 62/63/63 64/65/65 65/87/66
f 65/87/66 64/65/65 66/67/67 67/86/68
f 67/86/68 66/67/67 68/69/69 69/85/70
f 69/85/70 68/69/69 70/71/71 71/84/72
f 71/84/72 70/71/71 72/73/73 73/83/74
f 73/83/74 72/73/73 74/75/75 75/82/76
f 75/82/76 74/75/75 76/30/30 77/81/29
s 3
f 1/2/77 2/1/78 30/31/79 28/27/80
f 2/1/78 3/4/81 32/33/82 30/31/79
f 3/4/81 4/5/83 34/35/84 32/33/82
f 4/5/83 5/79/85 36/37/86 34/35/84
f 5/6/85 6/7/87 38/39/88 36/80/86
f 6/7/87 7/8/89 40/41/90 38/39/88
f 7/8/89 8/9/91 42/43/92 40/41/90
f 8/9/91 9/10/93 44/45/94 42/43/92
f 9/10/93 10/11/95 46/47/96 44/45/94
f 10/11/95 11/12/97 48/49/98 46/47/96
f 11/12/97 12/13/99 50/51/100 48/49/98
f 12/13/99 13/14/101 52/53/102 50/51/100
f 13/14/101 14/15/103 54/55/104 52/53/102
f 14/15/103 15/16/105 56/57/106 54/55/104
f 15/16/105 16/17/107 58/59/108 56/57/106
f 16/17/107 17/18/109 60/61/110 58/59/108
f 17/18/109 18/19/111 62/63/112 60/61/110
f 18/19/111 19/20/113 64/65/114 62/63/112
f 19/20/113 20/21/115 66/67/116 64/65/114
f 20/21/115 21/22/117 68/69/118 66/67/116
f 21/22/117 22/23/119 70/71/120 68/69/118
f 22/23/119 23/24/121 72/73/122 70/71/120
f 23/24/121 24/25/123 74/75/124 72/73/122
f 24/25/123 25/26/125 76/30/126 74/75/124
f 25/26/125 1/2/77 28/27/80 76/30/126
s 4
f 29/28/127 31/32/128 27/77/129
f 31/32/128 33/34/130 27/77/129
f 33/34/130 35/36/131 27/77/129
f 35/36/131 37/38/132 27/77/129
f 37/38/132 39/40/133 27/77/129
f 39/40/133 41/42/134 27/77/129
f 41/42/134 43/44/135 27/77/129
f 43/44/135 45/46/136 27/77/129
f 45/46/136 47/48/137 27/77/129
f 47/48/137 49/50/138 27/77/129
f 49/50/138 51/52/139 27/77/129
f 51/52/139 53/54/140 27/77/129
f 53/54/140 55/56/141 27/77/129
f 55/56/141 57/58/142 27/77/129
f 57/58/142 59/60/143 27/77/129
f 59/60/143 61/62/144 27/77/129
f 61/62/144 63/64/145 27/77/129
f 63/64/145 65/66/146 27/77/129
f 65/66/146 67/68/147 27/77/129
f 67/68/147 69/70/148 27/77/129
f 69/70/148 71/72/149 27/77/129
f 71/72/149 73/74/150 27/77/129
f 73/74/150 75/76/151 27/77/129
f 75/76/151 77/29/152 27/77/129
f 77/29/152 29/28/127 27/77/129
